<svg xmlns="http://www.w3.org/2000/svg" width="24" height="24" viewBox="0 0 24 24"><path fill="#fff" d="M23.47 20.847l-4.94-4.946a10.163 10.163 0 0 0 .98-9.7A9.91 9.91 0 0 0 14.1.793a10.123 10.123 0 0 0-7.89 0 10.2 10.2 0 0 0-3.24 2.163A10.066 10.066 0 0 0 .81 6.201a10.008 10.008 0 0 0 0 7.888 10.071 10.071 0 0 0 2.16 3.244 10.193 10.193 0 0 0 3.24 2.163 10 10 0 0 0 3.95.8 9.85 9.85 0 0 0 5.75-1.788l4.95 4.932a1.723 1.723 0 0 0 1.3.548 1.875 1.875 0 0 0 1.85-1.846 1.753 1.753 0 0 0-.54-1.295zm-8.75-6.136a6.456 6.456 0 0 1-9.13-9.129 6.456 6.456 0 1 1 9.13 9.129z"/></svg>