<svg xmlns="http://www.w3.org/2000/svg" width="27" height="24" viewBox="0 0 27 24"><path fill="#fff" d="M23.324 3.9H18.38L17.091.71A1.122 1.122 0 0 0 16.049 0h-5.087A1.123 1.123 0 0 0 9.92.71L8.631 3.9H3.682A3.682 3.682 0 0 0 0 7.58v12.73A3.688 3.688 0 0 0 3.682 24h19.637A3.691 3.691 0 0 0 27 20.31V7.58a3.677 3.677 0 0 0-3.676-3.68zM11.717 2.25h3.572l.661 1.64h-4.9zm13.04 18.06a1.442 1.442 0 0 1-1.433 1.44H3.682a1.441 1.441 0 0 1-1.433-1.44V7.58a1.433 1.433 0 0 1 1.433-1.43h19.637a1.434 1.434 0 0 1 1.433 1.43v12.73zM13.5 7.79a6.16 6.16 0 1 0 6.151 6.16A6.168 6.168 0 0 0 13.5 7.79zm0 10.07a3.91 3.91 0 1 1 3.9-3.91 3.915 3.915 0 0 1-3.9 3.91z"/></svg>