<svg xmlns="http://www.w3.org/2000/svg" viewBox="0 0 50.24 19.12"><style>.a{fill:#d72027}</style><path class="a" d="M5.49 10.39l-.34-1.86h-2.2l-.33 1.86H.24l1.61-7.33a2.5 2.5 0 0 1 .16-.5.72.72 0 0 1 .24-.29.86.86 0 0 1 .39-.14 5 5 0 0 1 .6 0h2.31a.78.78 0 0 1 .38.12.67.67 0 0 1 .22.29 3 3 0 0 1 .15.53l1.65 7.32H5.49zm-3.25-8.9V0h1.44v1.49H2.23zm2 2.08h-.45l-.64 3.47h1.8zm.13-2.08V0h1.48v1.49H4.41zM10.85 5.7v4.7H8.69V5.8a1.61 1.61 0 0 1 .34-1.1 1.44 1.44 0 0 1 1.15-.4h2.69v1.4h-2zM13.4 3.7V2.23h2.17V3.7H13.4zm0 6.65V4.31h2.17v6.08H13.4zM22.74 8.9a1.59 1.59 0 0 1-.35 1.12 1.51 1.51 0 0 1-1.16.38h-2.28v2.22h-2.16v-8.3h4.46a1.44 1.44 0 0 1 1.14.39 1.64 1.64 0 0 1 .33 1.1v3.1zm-2.16-3.2h-1.63V9h1.66V5.7zM29.63 9.08a1.65 1.65 0 0 1-.23 1 .92.92 0 0 1-.72.29h-3.54a1.58 1.58 0 0 1-1.09-.37 1.48 1.48 0 0 1-.38-1.13v-.79a1.85 1.85 0 0 1 .14-.77 1.08 1.08 0 0 1 .35-.45 1.26 1.26 0 0 1 .48-.16 2.6 2.6 0 0 1 .51-.05h2.31v-1h-3.27V4.31h4a1.83 1.83 0 0 1 .75.13 1.19 1.19 0 0 1 .45.33 1.14 1.14 0 0 1 .22.47 2.46 2.46 0 0 1 .06.53v3.31zM24.95 3.7V2.23h1.44V3.7h-1.44zm2.51 4.15h-1.69v1.23h1.74V7.84zm-.3-4.15V2.23h1.44V3.7h-1.44zM32.95 7.79v1.13h3.42v1.47h-4.04a1.76 1.76 0 0 1-.75-.14 1.18 1.18 0 0 1-.45-.35 1.23 1.23 0 0 1-.18-.48 2.34 2.34 0 0 1-.06-.51V5.86a1.63 1.63 0 0 1 .32-1.16 1.46 1.46 0 0 1 1.1-.41h2.91a1.47 1.47 0 0 1 1.11.38 1.59 1.59 0 0 1 .33 1.1v2h-3.71zm1.53-2.22h-1.53v1.42h1.54V5.57zM41.95 10.39h-2.84l-2-6.08h2.35l1.06 4.17h.18l1.06-4.17h2.19zM50.24 9.08a1.65 1.65 0 0 1-.23 1 .92.92 0 0 1-.72.29h-3.54a1.58 1.58 0 0 1-1.09-.37 1.48 1.48 0 0 1-.38-1.13v-.79a1.85 1.85 0 0 1 .14-.77 1.08 1.08 0 0 1 .35-.45 1.26 1.26 0 0 1 .48-.16 2.6 2.6 0 0 1 .51-.05h2.31v-1H44.8V4.31h4a1.83 1.83 0 0 1 .75.13 1.19 1.19 0 0 1 .45.33 1.14 1.14 0 0 1 .22.47 2.46 2.46 0 0 1 .06.53v3.31zm-2.13-1.24h-1.73v1.23h1.74V7.84zM4.2 19.1l-.25-1.49h-1.8l-.26 1.49H0l1.29-5.85a2 2 0 0 1 .13-.4.57.57 0 0 1 .19-.23.68.68 0 0 1 .34-.13h2.33a.62.62 0 0 1 .3.1.53.53 0 0 1 .18.23 2.37 2.37 0 0 1 .12.43l1.29 5.85H4.2zm-1-5.45h-.35l-.52 2.78h1.42zM6.8 19.1v-7h1.7v7H6.8zm3.62-2.54l1.43 2.54h-2l-1.17-2.4 1.54-2.42h1.8zM16.89 18.05a1.32 1.32 0 0 1-.18.81.73.73 0 0 1-.58.23h-2.82a1.26 1.26 0 0 1-.87-.29 1.18 1.18 0 0 1-.3-.9v-.65a1.48 1.48 0 0 1 .11-.61.86.86 0 0 1 .28-.36 1 1 0 0 1 .42-.16 2.08 2.08 0 0 1 .41 0h1.85v-.82h-2.66v-1.06h3.16a1.47 1.47 0 0 1 .6.1 1 1 0 0 1 .36.27.91.91 0 0 1 .18.38 2 2 0 0 1 0 .43v2.65zm-1.7-1h-1.38v1h1.39v-1zM19.05 19.1a1.42 1.42 0 0 1-.61-.11.9.9 0 0 1-.36-.3 1 1 0 0 1-.17-.4 2.25 2.25 0 0 1 0-.43v-2.44a1.87 1.87 0 0 1 0-.41 1 1 0 0 1 .17-.38.9.9 0 0 1 .36-.28 1.47 1.47 0 0 1 .61-.11h1.9v-2.18h1.7v7h-3.6zm1.9-3.76h-1.36v2.65h1.36v-2.65zM25.33 17.02v.9h2.73v1.18h-3.27a1.41 1.41 0 0 1-.6-.11.94.94 0 0 1-.35-.29 1 1 0 0 1-.18-.38 1.88 1.88 0 0 1 0-.41v-2.44a1.3 1.3 0 0 1 .29-.91 1.16 1.16 0 0 1 .88-.33h2.33a1.17 1.17 0 0 1 .89.31 1.27 1.27 0 0 1 .27.88v1.6h-2.99zm1.22-1.77h-1.23v1.14h1.23v-1.14zM30.8 17.02v.9h2.73v1.18h-3.27a1.41 1.41 0 0 1-.6-.11.94.94 0 0 1-.35-.29 1 1 0 0 1-.18-.38 1.88 1.88 0 0 1 0-.41v-2.44a1.3 1.3 0 0 1 .29-.91 1.16 1.16 0 0 1 .88-.33h2.33a1.17 1.17 0 0 1 .89.31 1.27 1.27 0 0 1 .27.88v1.6H30.8zm1.22-1.77h-1.23v1.14h1.23v-1.14zM40.29 19.1v-3.76h-1.14v3.76h-1.73v-3.76h-1.15v3.76h-1.72v-3.68a2 2 0 0 1 .06-.48.92.92 0 0 1 .19-.38.84.84 0 0 1 .36-.24 1.72 1.72 0 0 1 .59-.08h5.09a1.14 1.14 0 0 1 .93.31 1.35 1.35 0 0 1 .25.87v3.68h-1.73zM42.95 13.78v-1.21h1.74v1.21h-1.74zm0 5.31v-4.85h1.74v4.86h-1.74zM50.24 18.05a1.32 1.32 0 0 1-.18.81.73.73 0 0 1-.58.23h-2.83a1.26 1.26 0 0 1-.87-.29 1.18 1.18 0 0 1-.3-.9v-.65a1.48 1.48 0 0 1 .11-.61.86.86 0 0 1 .28-.36 1 1 0 0 1 .38-.16 2.08 2.08 0 0 1 .41 0h1.85v-.82h-2.62v-1.06h3.16a1.47 1.47 0 0 1 .6.1 1 1 0 0 1 .36.27.91.91 0 0 1 .18.38 2 2 0 0 1 0 .43v2.65zm-1.7-1h-1.39v1h1.39v-1z"/></svg>