<svg xmlns="http://www.w3.org/2000/svg" viewBox="0 0 358.05 118.88"><style>.a{fill:#af1f24}.b{fill:#7c131b}.c{fill:#d72027}</style><path class="a" d="M8.43 78.83h21.39l-4.56 11.08L8.43 78.83z"/><path class="a" d="M0 118.62L52.99 0l13.66 31.38-38.18 87.24H0z"/><path class="b" d="M62.36 41.18l4.29-9.8L52.99 0l-.03.05 9.4 41.13zM37.48 98l8.41-19.21H17.77l-2.2 4.92z"/><path class="c" d="M52.99 0h27.86l51.56 118.62h-27.86L87.11 78.83H8.43L20.2 53.05h55.88L52.99 0zM169.5 82.12l-1.44-7.82h-9.35l-1.39 7.82h-9.94l6.78-30.87a10.52 10.52 0 0 1 .67-2.13 3 3 0 0 1 1-1.24 3.61 3.61 0 0 1 1.63-.57 21.17 21.17 0 0 1 2.52-.12h7.22q1.53 0 2.52.1a3.28 3.28 0 0 1 1.58.52 2.82 2.82 0 0 1 .94 1.24 12.48 12.48 0 0 1 .64 2.25l6.78 30.82H169.5zm-13.7-37.51v-6.28h6.09v6.28h-6.09zm8.61 8.76h-2L159.66 68h7.47zm.59-8.76v-6.28h6v6.28h-6zm27.11 17.71v19.8H183v-19.4a6.78 6.78 0 0 1 1.44-4.55q1.43-1.68 4.85-1.68h11.33v5.84h-8.51zm10.74-8.21v-6.38H212v6.38h-9.15zm0 28V56.49H212v25.63h-9.15zm39.33-6.28a6.72 6.72 0 0 1-1.46 4.7q-1.46 1.58-4.87 1.58h-9.7v9.35h-9v-35h18.8q3.41 0 4.82 1.66a6.93 6.93 0 0 1 1.41 4.63v13.08zm-9.1-13.56h-7v14h7v-14zm38.14 14.35q0 3.12-1 4.28a3.86 3.86 0 0 1-3 1.21h-14.91a6.66 6.66 0 0 1-4.58-1.54q-1.61-1.49-1.61-4.76v-3.42a7.79 7.79 0 0 1 .57-3.23 4.55 4.55 0 0 1 1.48-1.89 5.3 5.3 0 0 1 2-.87 11 11 0 0 1 2.15-.22h9.75v-4.1h-13.8v-5.59H265a7.73 7.73 0 0 1 3.14.54 5 5 0 0 1 1.9 1.41 4.8 4.8 0 0 1 .94 2 10.36 10.36 0 0 1 .25 2.25v14zm-19.54-22.71v-6.18h6.09v6.18h-6.09zm10.59 17.46h-7.32v5.2h7.32v-5.2zm-1.43-17.46v-6.18h6.09v6.18h-6.09zm24.58 17.27v4.75h14.4v6.18H282.6a7.43 7.43 0 0 1-3.14-.57 5 5 0 0 1-1.9-1.48 5.18 5.18 0 0 1-.94-2 9.88 9.88 0 0 1-.25-2.15V63a6.88 6.88 0 0 1 1.53-4.8 6.13 6.13 0 0 1 4.65-1.73h12.23q3.27.05 4.68 1.61a6.69 6.69 0 0 1 1.41 4.63v8.46h-15.45zm6.43-9.35h-6.48v6h6.48v-6zm31.23 20.29h-11.93l-8.41-25.63h9.9l4.45 17.56h.74l4.45-17.56h9.2zm34.97-5.5q0 3.12-1 4.28a3.86 3.86 0 0 1-3 1.21h-14.89a6.66 6.66 0 0 1-4.58-1.54Q333 79.09 333 75.81v-3.42a7.79 7.79 0 0 1 .57-3.23 4.55 4.55 0 0 1 1.43-1.88 5.3 5.3 0 0 1 2-.87 11 11 0 0 1 2.15-.22H349v-4.11h-13.8v-5.59h16.67A7.73 7.73 0 0 1 355 57a5 5 0 0 1 1.9 1.41 4.8 4.8 0 0 1 .94 2 10.36 10.36 0 0 1 .25 2.25v14zm-9-5.24h-7.32v5.2h7.32v-5.2zM164.08 118.8l-1.15-6.25h-7.47l-1.11 6.25h-7.95l5.42-24.67a8.42 8.42 0 0 1 .53-1.7 2.42 2.42 0 0 1 .81-1 2.88 2.88 0 0 1 1.3-.45 16.88 16.88 0 0 1 2-.1h5.77q1.22 0 2 .08a2.62 2.62 0 0 1 1.27.42 2.25 2.25 0 0 1 .75 1 10 10 0 0 1 .51 1.8l5.42 24.63h-8.14zm-4.07-23h-1.62l-2.17 11.7h6zm14.99 23V89.15h7.15v29.65H175zm15.26-10.71l6 10.71H188l-5-10.28 6.48-10.2H197zm27.3 6.32a5.55 5.55 0 0 1-.77 3.42 3.08 3.08 0 0 1-2.43 1h-11.93a5.32 5.32 0 0 1-3.66-1.23 5 5 0 0 1-1.28-3.81V111a6.22 6.22 0 0 1 .45-2.58 3.63 3.63 0 0 1 1.19-1.51 4.22 4.22 0 0 1 1.62-.69 8.76 8.76 0 0 1 1.72-.18h7.79v-3.28h-11v-4.44h13.32a6.18 6.18 0 0 1 2.51.44 4 4 0 0 1 1.52 1.13 3.83 3.83 0 0 1 .75 1.58 8.27 8.27 0 0 1 .2 1.8v11.15zm-7.15-4.19h-5.85v4.15h5.85v-4.15zm16.25 8.58a6 6 0 0 1-2.57-.47 3.8 3.8 0 0 1-1.52-1.25 4.41 4.41 0 0 1-.71-1.68 9.46 9.46 0 0 1-.18-1.82V103.3a7.9 7.9 0 0 1 .2-1.72 4.3 4.3 0 0 1 .73-1.62 3.8 3.8 0 0 1 1.52-1.19 6.2 6.2 0 0 1 2.57-.45h7.79v-9.17h7.16v29.65h-15zm7.9-15.8h-5.65v11.15h5.65V103zm18.54 7.06v3.79h11.5v4.94h-13.75a5.93 5.93 0 0 1-2.51-.45 4 4 0 0 1-1.52-1.19 4.13 4.13 0 0 1-.75-1.62 7.9 7.9 0 0 1-.2-1.72v-10.27a5.49 5.49 0 0 1 1.23-3.83 4.9 4.9 0 0 1 3.72-1.38h9.82a4.94 4.94 0 0 1 3.74 1.29 5.35 5.35 0 0 1 1.13 3.7v6.76H253.1zm5.14-7.47h-5.18v4.78h5.18v-4.78zm17.91 7.47v3.79h11.5v4.94h-13.76a5.93 5.93 0 0 1-2.51-.45 4 4 0 0 1-1.52-1.19 4.13 4.13 0 0 1-.75-1.62 7.9 7.9 0 0 1-.2-1.72v-10.27a5.49 5.49 0 0 1 1.23-3.83 4.9 4.9 0 0 1 3.72-1.38h9.82a4.94 4.94 0 0 1 3.74 1.29 5.35 5.35 0 0 1 1.13 3.7v6.76h-12.4zm5.14-7.47h-5.18v4.78h5.18v-4.78zm34.86 16.21V103h-4.82v15.8h-7.27V103h-4.86v15.8H292v-15.5a8.22 8.22 0 0 1 .24-2 3.89 3.89 0 0 1 .79-1.58 3.55 3.55 0 0 1 1.52-1 7.27 7.27 0 0 1 2.47-.36h21.46q2.85 0 3.91 1.32a5.67 5.67 0 0 1 1.07 3.66v15.5h-7.27zm11.39-22.37v-5.1h7.31v5.1h-7.31zm0 22.37V98.32h7.31v20.48h-7.31zm30.51-4.39a5.55 5.55 0 0 1-.77 3.42 3.08 3.08 0 0 1-2.43 1h-11.92a5.32 5.32 0 0 1-3.66-1.23 5 5 0 0 1-1.28-3.81V111a6.22 6.22 0 0 1 .45-2.58 3.63 3.63 0 0 1 1.19-1.51 4.22 4.22 0 0 1 1.62-.69 8.76 8.76 0 0 1 1.72-.18h7.79v-3.28h-11v-4.44h13.32a6.18 6.18 0 0 1 2.51.44 4 4 0 0 1 1.52 1.13 3.83 3.83 0 0 1 .75 1.58 8.27 8.27 0 0 1 .2 1.8v11.15zm-7.15-4.19H345v4.15h5.85v-4.15z"/></svg>